<svg width="642" height="630" viewBox="0 0 642 630" fill="none" xmlns="http://www.w3.org/2000/svg">
<path fill-rule="evenodd" clip-rule="evenodd" d="M386.253 0.536363L385.763 0L385.102 0.300347L320.273 29.7328L254.833 0.497822L254.17 0.20147L253.683 0.740778L201.752 58.2693L136.5 58.1389L135.774 58.1374L135.548 58.828L114.506 123.151L41.2857 156.393L40.6242 156.694L40.7054 157.416L48.6332 227.891L0.486838 281.227L0 281.766L0.362475 282.396L39.9284 351.127L20.6127 410.173L20.3868 410.863L20.9737 411.292L73.5817 449.675L82.9144 532.639L82.9956 533.361L83.7074 533.506L153.105 547.729L188.879 609.874L189.242 610.503L189.953 610.353L270.492 593.341L319.605 629.174L320.192 629.602L320.78 629.176L371.493 592.486L453.609 609.314L454.321 609.46L454.68 608.828L489.764 547.023L559.658 532.259L560.369 532.109L560.446 531.387L569.16 449.475L620.28 412.49L620.869 412.064L620.646 411.373L601.118 350.86L641.083 280.457L641.441 279.825L640.951 279.288L592.864 226.66L600.42 155.645L600.496 154.922L599.833 154.626L527.34 122.24L507.116 59.5708L506.893 58.8793L506.166 58.8779L439.439 58.7445L386.253 0.536363ZM436.724 58.7391L385.267 2.4218L322.711 30.8222L384.969 58.6356L436.724 58.7391ZM317.841 30.8369L254.681 2.62023L204.441 58.2747L257.173 58.3801L317.841 30.8369ZM261.99 58.3898L320.279 31.9263L380.043 58.6258L261.99 58.3898ZM252.787 60.3714L202.639 60.2711L167.661 99.0186L252.787 60.3714ZM164.302 102.74L257.604 60.381L384.54 60.6347L475.645 101.336L541.888 173.835L582.94 301.043L572.755 396.772L526.872 477.602L410.644 561.692L322.278 580.358L230.237 561.495L114.892 477.339L69.918 399.214L58.7575 300.001L99.9763 173.999L164.302 102.74ZM163.096 101.091L199.949 60.2657L137.223 60.1403L116.977 122.029L163.096 101.091ZM116.133 124.609L159.736 104.813L101.508 169.318L116.133 124.609ZM113.662 125.731L42.7741 157.914L50.4228 225.909L98.2074 172.974L113.662 125.731ZM48.9318 230.545L2.45827 282.028L40.7646 348.571L56.7214 299.792L48.9318 230.545ZM58.219 295.214L50.7214 228.563L96.676 177.655L58.219 295.214ZM57.2598 304.579L42.1064 350.901L67.4166 394.868L57.2598 304.579ZM67.977 399.851L41.2702 353.458L22.7395 410.104L73.2784 446.978L67.977 399.851ZM75.7743 451.274L84.8206 531.693L151.773 545.414L113.37 478.704L75.7743 451.274ZM155.721 548.265L190.25 608.246L268.319 591.756L229.409 563.367L155.721 548.265ZM225.518 560.528L154.389 545.951L117.349 481.607L225.518 560.528ZM234.128 564.334L270.951 591.2L317.372 581.394L234.128 564.334ZM322.284 582.401L273.123 592.785L320.197 627.13L368.835 591.941L322.284 582.401ZM373.692 590.895L453.299 607.209L487.151 547.575L411.473 563.561L373.692 590.895ZM491.083 544.701L558.534 530.453L566.981 451.052L528.397 478.967L491.083 544.701ZM524.494 481.791L488.469 545.252L415.463 560.674L524.494 481.791ZM530.774 474.778L567.265 448.377L572.225 401.758L530.774 474.778ZM574.7 397.398L569.444 446.801L618.519 411.296L599.778 353.22L574.7 397.398ZM600.284 348.277L638.985 280.101L592.582 229.316L584.973 300.833L600.284 348.277ZM591.063 224.688L598.354 156.156L528.166 124.799L543.658 172.807L591.063 224.688ZM545.137 177.391L590.78 227.344L583.461 296.146L545.137 177.391ZM540.409 169.251L525.71 123.702L480.223 103.381L540.409 169.251ZM476.841 99.6795L524.884 121.143L505.436 60.8764L441.269 60.7481L476.841 99.6795ZM472.263 97.6344L438.555 60.7427L389.466 60.6446L472.263 97.6344ZM598.944 350.637L575.231 392.412L584.452 305.73L598.944 350.637ZM371.033 590.35L327.189 581.364L406.654 564.579L371.033 590.35ZM75.4709 448.577L70.4785 404.196L110.913 474.436L75.4709 448.577Z" fill="white"/>
<path fill-rule="evenodd" clip-rule="evenodd" d="M511.764 294.935C510.889 294.935 510.014 294.293 510.014 293.185V293.126C510.072 290.793 510.072 286.418 510.072 282.684C510.072 279.943 510.072 277.551 510.014 276.559C509.781 272.068 507.097 270.317 504.239 270.317C500.506 270.317 496.422 273.176 496.247 277.143C496.189 278.134 496.189 280.001 496.189 282.159C496.189 285.718 496.247 290.093 496.305 293.126V293.185C496.305 294.235 495.43 294.818 494.555 294.818C493.739 294.818 492.922 294.293 492.922 293.185V293.126C492.98 290.793 492.98 286.418 492.98 282.684C492.98 279.943 492.98 277.551 492.922 276.559C492.689 272.009 490.005 270.142 487.147 270.142C483.472 270.142 479.447 273.118 479.272 277.434C479.213 278.426 479.213 280.351 479.213 282.568C479.213 286.126 479.272 290.501 479.33 293.126V293.185C479.33 294.351 478.513 294.935 477.697 294.935C476.822 294.935 475.947 294.293 475.947 293.126V293.068C476.063 288.459 476.122 282.334 476.122 276.909C476.122 274.051 476.122 271.309 476.063 269.151V269.092C476.063 268.042 476.88 267.517 477.755 267.517C478.572 267.517 479.388 268.042 479.388 269.151V270.726C479.388 270.959 479.388 271.076 479.447 271.076C479.505 271.076 479.563 271.017 479.622 270.901C481.489 268.509 484.639 267.226 487.614 267.226C490.997 267.226 494.264 268.859 495.43 272.359C497.647 268.917 501.147 267.226 504.531 267.226C509.022 267.226 513.164 270.259 513.339 275.976C513.397 278.426 513.456 285.834 513.456 290.385V293.01C513.456 294.293 512.581 294.935 511.764 294.935ZM451.973 294.701C450.048 294.701 449.231 291.61 449.115 290.618C449.056 290.385 449.056 290.326 448.998 290.326C448.94 290.326 448.881 290.326 448.823 290.443C446.84 293.476 443.106 295.11 439.431 295.11C434.589 295.11 429.923 292.193 429.748 285.776C429.689 283.676 429.573 278.251 429.573 273.818C429.573 272.009 429.573 270.317 429.631 269.092C429.631 267.926 430.448 267.401 431.323 267.401C432.198 267.401 433.073 267.984 433.073 269.034V269.092C433.014 271.543 432.956 276.151 432.956 279.943C432.956 282.393 433.014 284.434 433.073 285.368C433.364 290.151 436.398 292.135 439.664 292.135C443.748 292.135 448.181 289.043 448.298 284.259C448.356 282.276 448.415 280.293 448.415 278.309C448.415 275.218 448.356 272.184 448.298 269.092V269.034C448.298 267.984 449.115 267.459 449.99 267.459C450.865 267.459 451.798 268.042 451.798 269.092V269.151C451.681 273.643 451.623 278.426 451.623 283.326C451.623 287.059 451.856 289.743 453.373 291.901C453.665 292.31 453.781 292.718 453.781 293.068C453.781 294.001 452.906 294.701 451.973 294.701ZM425.955 340.543C425.955 337.101 428.755 333.834 433.889 333.834C438.847 333.834 441.997 336.342 441.997 337.917C441.997 338.851 441.239 339.609 440.306 339.609C439.839 339.609 439.256 339.376 438.789 338.793C437.855 337.684 436.397 336.751 433.889 336.751C430.914 336.751 429.222 338.501 429.222 340.426C429.222 341.826 430.155 343.284 432.08 344.218C433.714 344.976 436.397 346.084 438.205 347.018C441.822 348.884 443.397 351.626 443.397 354.309C443.397 357.635 440.656 361.835 434.122 361.835C428.055 361.835 424.672 358.335 424.672 356.701C424.672 355.709 425.547 355.009 426.422 355.009C426.947 355.009 427.472 355.243 427.88 355.768C429.164 357.576 431.264 358.685 434.122 358.685C437.447 358.685 439.956 356.818 439.956 354.309C439.956 351.218 437.447 350.051 430.68 347.018C427.472 345.618 425.955 343.051 425.955 340.543ZM404.781 291.901C405.306 291.901 405.831 291.843 406.415 291.785H406.648C407.523 291.785 408.048 292.543 408.048 293.301C408.048 294.818 406.648 295.11 404.315 295.11C396.848 295.11 396.848 288.751 396.848 286.184C396.848 282.451 396.964 275.334 396.964 272.476V271.543C396.964 270.959 396.789 270.842 396.381 270.842H392.939C391.831 270.842 391.306 270.084 391.306 269.326C391.306 268.567 391.831 267.809 392.939 267.809H396.323C396.848 267.809 396.964 267.751 396.964 267.226C396.964 266.992 397.023 264.192 397.023 262.151V260.692C397.023 259.584 397.898 259.001 398.714 259.001C399.589 259.001 400.406 259.584 400.406 260.809C400.406 262.501 400.289 267.167 400.289 267.167C400.289 267.809 400.406 267.809 401.164 267.809H406.356C407.465 267.809 407.99 268.567 407.99 269.326C407.99 270.084 407.465 270.842 406.356 270.842H401.223C400.289 270.842 400.289 270.959 400.289 271.718C400.289 273.934 400.114 279.943 400.114 284.259C400.114 288.809 400.231 291.901 404.781 291.901ZM404.606 343.459C404.606 345.676 403.264 347.309 400.348 347.368C399.006 347.426 397.023 347.426 394.864 347.426C390.489 347.426 385.531 347.368 384.247 347.368C383.664 347.368 383.547 347.601 383.547 348.418C383.547 354.776 387.748 358.685 393.348 358.685C397.606 358.685 399.998 356.876 401.806 354.834C402.156 354.484 402.564 354.309 402.973 354.309C403.848 354.309 404.723 355.068 404.723 356.001C404.723 357.343 400.639 361.776 393.289 361.776C385.881 361.776 380.106 356.234 380.106 348.009C380.106 339.493 386.231 333.892 393.114 333.892C401.106 333.892 404.606 340.134 404.606 343.459ZM384.014 343.984C384.014 344.568 384.539 344.568 391.306 344.568C394.339 344.568 397.606 344.568 399.239 344.509C400.639 344.451 401.164 343.809 401.164 342.876C401.164 341.184 399.123 336.809 393.173 336.809C387.573 336.809 384.014 341.826 384.014 343.984ZM369.548 294.876C368.673 294.876 367.798 294.293 367.798 293.243V293.185C367.856 290.735 367.915 286.184 367.915 282.509C367.915 280.118 367.856 278.076 367.798 277.143C367.506 272.418 364.531 270.434 361.265 270.434C357.181 270.434 352.573 273.584 352.456 278.251C352.398 280.059 352.339 283.268 352.339 287.293C352.339 289.159 352.339 291.085 352.398 293.185V293.243C352.398 294.293 351.581 294.818 350.706 294.818C349.831 294.818 348.898 294.235 348.898 293.185V293.126C349.014 288.401 349.131 282.976 349.131 278.018C349.131 274.751 349.073 271.718 349.014 269.151V269.092C349.014 268.159 349.948 267.576 350.881 267.576C351.698 267.576 352.514 268.042 352.514 269.151V271.368C352.514 271.543 352.573 271.601 352.573 271.601C352.631 271.601 352.748 271.543 352.806 271.426C354.906 268.626 358.231 267.226 361.44 267.226C366.281 267.226 370.948 270.376 371.181 276.559C371.24 278.426 371.298 282.743 371.298 286.768C371.298 289.218 371.298 291.61 371.24 293.185C371.24 294.351 370.423 294.876 369.548 294.876ZM353.04 335.759C353.332 335.934 353.565 335.992 353.798 335.992C354.032 335.992 354.265 335.934 354.499 335.759C356.015 334.709 357.357 334.184 358.99 334.184C361.324 334.184 361.674 335.176 361.674 335.934C361.674 336.692 361.149 337.509 360.157 337.509C360.04 337.509 359.865 337.451 359.749 337.451C359.457 337.392 359.107 337.392 358.815 337.392C356.89 337.392 355.782 338.384 355.782 339.084C355.782 339.201 355.84 339.318 355.899 339.493C356.482 340.776 356.599 342.234 356.599 343.226C356.599 348.301 352.807 351.918 345.982 352.151C342.132 352.326 338.573 354.193 338.573 356.468C338.573 358.335 341.373 358.51 344.173 358.51C351.757 358.51 352.165 358.568 353.623 358.801C358.057 359.443 361.44 362.126 361.44 366.385C361.44 372.276 355.782 376.71 346.798 376.71C340.44 376.71 333.556 373.91 333.556 368.018C333.556 364.751 336.007 362.301 339.04 361.135C339.448 360.96 339.682 360.901 339.682 360.843C339.682 360.785 339.332 360.785 338.807 360.61C336.882 360.026 335.365 358.743 335.365 356.701C335.365 355.534 335.773 353.259 339.448 351.393C339.857 351.159 340.032 351.043 340.032 350.926C340.032 350.809 339.682 350.693 339.273 350.459C337.057 349.176 335.131 346.609 335.131 343.284C335.131 337.276 340.207 334.009 345.69 334.009H345.807C348.432 334.009 350.765 334.476 353.04 335.759ZM336.765 367.843C336.765 370.585 339.565 373.618 346.39 373.618C352.457 373.618 357.999 371.168 357.999 366.501C357.999 361.426 351.873 361.368 347.79 361.368C346.857 361.368 345.923 361.368 345.165 361.426C341.14 361.66 336.765 364.11 336.765 367.843ZM345.865 336.692C342.015 336.692 338.398 338.909 338.398 343.109C338.398 349.468 345.165 349.468 345.69 349.468C346.448 349.468 353.39 349.176 353.39 343.051C353.39 336.984 346.798 336.692 345.865 336.692ZM315.123 292.018C319.382 292.018 321.774 290.209 323.582 288.168C323.932 287.818 324.34 287.643 324.749 287.643C325.624 287.643 326.499 288.401 326.499 289.334C326.499 290.676 322.415 295.11 315.065 295.11C307.657 295.11 301.882 289.568 301.882 281.343C301.882 272.826 308.007 267.226 314.89 267.226C322.882 267.226 326.382 273.468 326.382 276.793C326.382 279.009 325.04 280.643 322.124 280.701C320.782 280.759 318.799 280.759 316.64 280.759C312.265 280.759 307.307 280.701 306.023 280.701C305.44 280.701 305.323 280.934 305.323 281.751C305.323 288.109 309.523 292.018 315.123 292.018ZM313.082 277.901C316.115 277.901 319.382 277.901 321.015 277.843C322.415 277.784 322.94 277.143 322.94 276.209C322.94 274.518 320.899 270.142 314.948 270.142C309.348 270.142 305.79 275.159 305.79 277.318C305.79 277.901 306.315 277.901 313.082 277.901ZM311.157 342.759C311.157 343.284 311.157 343.809 311.099 344.393C310.924 346.318 310.807 348.943 310.807 350.868C310.807 355.709 311.74 356.876 314.074 358.101C314.54 358.335 314.715 358.801 314.715 359.268C314.715 360.085 314.015 361.076 312.965 361.076C312.615 361.076 309.699 360.26 308.882 357.051C308.824 356.876 308.824 356.818 308.707 356.818C308.707 356.818 308.59 356.876 308.532 356.993C306.782 359.968 302.873 361.776 299.315 361.776C293.423 361.776 289.865 357.751 289.865 353.726C289.865 350.809 291.79 347.834 296.107 346.493C299.723 345.384 304.449 344.509 306.899 344.101C307.599 343.984 307.832 343.809 307.832 343.401C307.832 343.109 307.89 342.759 307.89 342.468C307.89 339.259 306.549 336.751 301.823 336.751C298.673 336.751 296.34 338.092 294.998 339.551C294.648 339.959 294.182 340.134 293.773 340.134C292.898 340.134 292.14 339.493 292.14 338.559C292.14 336.342 297.04 333.834 302.057 333.834C307.482 333.834 311.157 336.226 311.157 342.759ZM307.19 347.076H307.015C297.857 348.534 293.015 349.701 293.015 353.784C293.015 356.234 295.348 358.685 299.257 358.685C304.624 358.685 307.715 354.659 307.715 349.701C307.715 349.059 307.774 348.418 307.774 347.718C307.774 347.251 307.599 347.076 307.19 347.076ZM277.908 294.935C277.033 294.935 276.158 294.293 276.158 293.185V293.126C276.216 290.793 276.216 286.418 276.216 282.684C276.216 279.943 276.216 277.551 276.158 276.559C275.925 272.068 273.241 270.317 270.383 270.317C266.65 270.317 262.566 273.176 262.391 277.143C262.333 278.134 262.333 280.001 262.333 282.159C262.333 285.718 262.391 290.093 262.449 293.126V293.185C262.449 294.235 261.574 294.818 260.699 294.818C259.883 294.818 259.066 294.293 259.066 293.185V293.126C259.124 290.793 259.124 286.418 259.124 282.684C259.124 279.943 259.124 277.551 259.066 276.559C258.833 272.009 256.149 270.142 253.291 270.142C249.616 270.142 245.591 273.118 245.416 277.434C245.358 278.426 245.358 280.351 245.358 282.568C245.358 286.126 245.416 290.501 245.474 293.126V293.185C245.474 294.351 244.658 294.935 243.841 294.935C242.966 294.935 242.091 294.293 242.091 293.126V293.068C242.207 288.459 242.266 282.334 242.266 276.909C242.266 274.051 242.266 271.309 242.207 269.151V269.092C242.207 268.042 243.024 267.517 243.899 267.517C244.716 267.517 245.533 268.042 245.533 269.151V270.726C245.533 270.959 245.533 271.076 245.591 271.076C245.649 271.076 245.708 271.017 245.766 270.901C247.633 268.509 250.783 267.226 253.758 267.226C257.141 267.226 260.408 268.859 261.574 272.359C263.791 268.917 267.291 267.226 270.675 267.226C275.166 267.226 279.308 270.259 279.483 275.976C279.541 278.426 279.6 285.834 279.6 290.385V293.01C279.6 294.293 278.725 294.935 277.908 294.935ZM249.558 339.026C251.775 335.584 255.275 333.892 258.658 333.892C263.15 333.892 267.291 336.926 267.467 342.643C267.525 345.093 267.583 352.501 267.583 357.051V359.676C267.583 360.96 266.708 361.601 265.891 361.601C265.016 361.601 264.141 360.96 264.141 359.851V359.793C264.2 357.459 264.2 353.084 264.2 349.351C264.2 346.609 264.2 344.218 264.141 343.226C263.908 338.734 261.225 336.984 258.366 336.984C254.633 336.984 250.55 339.843 250.375 343.809C250.316 344.801 250.316 346.668 250.316 348.826C250.316 352.384 250.375 356.759 250.433 359.793V359.851C250.433 360.901 249.558 361.485 248.683 361.485C247.866 361.485 247.049 360.96 247.049 359.851V359.793C247.108 357.459 247.108 353.084 247.108 349.351C247.108 346.609 247.108 344.218 247.049 343.226C246.816 338.676 244.133 336.809 241.274 336.809C237.599 336.809 233.574 339.784 233.399 344.101C233.341 345.093 233.341 347.018 233.341 349.234C233.341 352.793 233.399 357.168 233.458 359.793V359.851C233.458 361.018 232.641 361.601 231.824 361.601C230.949 361.601 230.074 360.96 230.074 359.793V359.735C230.191 355.126 230.249 349.001 230.249 343.576C230.249 340.718 230.249 337.976 230.191 335.817V335.759C230.191 334.709 231.008 334.184 231.883 334.184C232.699 334.184 233.516 334.709 233.516 335.817V337.392C233.516 337.626 233.516 337.742 233.574 337.742C233.633 337.742 233.691 337.684 233.749 337.567C235.616 335.176 238.766 333.892 241.741 333.892C245.124 333.892 248.391 335.526 249.558 339.026ZM206.042 295.11C198.283 295.11 192.566 289.509 192.566 281.109C192.566 273.001 198.283 267.167 206.042 267.167C213.8 267.167 219.633 273.001 219.633 281.109C219.633 289.509 213.8 295.11 206.042 295.11ZM206.042 270.201C200.441 270.201 195.95 274.518 195.95 281.109C195.95 287.643 200.441 291.96 206.042 291.96C211.642 291.96 216.192 287.643 216.192 281.109C216.192 274.518 211.642 270.201 206.042 270.201ZM169.292 294.643C168.301 294.643 167.309 294.06 167.251 292.893C166.609 284.318 165.734 257.542 165.734 257.542C165.676 256.609 165.267 256.084 164.742 256.084C164.334 256.084 163.809 256.492 163.517 257.484C161.067 265.592 155.351 283.793 152.434 291.551C151.792 293.185 150.334 294.118 148.875 294.118C147.475 294.118 146.134 293.301 145.434 291.551C143.625 286.593 137.15 264.601 134.817 257.542C134.525 256.609 134.059 256.142 133.65 256.142C133.242 256.142 132.892 256.609 132.775 257.601C132.308 262.909 131.142 284.726 130.85 293.01C130.85 294.176 129.858 294.701 128.925 294.701C127.933 294.701 127 294.118 127 293.068V292.951C127.408 282.509 128.808 264.951 129.275 256.259C129.45 253.576 131.375 252.117 133.417 252.117C135.167 252.117 136.975 253.226 137.734 255.442C140.767 264.367 145.375 280.934 148.059 288.518C148.292 289.159 148.584 289.451 148.934 289.451C149.867 289.451 150.1 288.634 160.426 255.734C161.242 253.167 163.167 252 165.034 252C167.192 252 169.234 253.576 169.292 256.551C169.467 264.309 170.634 284.201 171.159 292.718V292.893C171.159 294.06 170.226 294.643 169.292 294.643ZM202.716 318.667C203.65 318.667 204.641 319.309 204.641 320.476V320.534C204.583 326.192 204.525 332.609 204.525 339.259C204.525 345.909 204.583 352.793 204.641 359.385V359.443C204.641 360.668 203.65 361.251 202.658 361.251C201.725 361.251 200.733 360.668 200.733 359.443V359.385C200.85 352.851 200.908 345.618 200.908 338.559C200.908 332.259 200.85 326.076 200.733 320.651V320.592C200.733 319.309 201.725 318.667 202.716 318.667Z" fill="white"/>
</svg>
